<svg id="svg" version="1.1" xmlns="http://www.w3.org/2000/svg" xmlns:xlink="http://www.w3.org/1999/xlink" width="400" height="399.74126778783955" viewBox="0, 0, 400,399.74126778783955"><g id="svgg"><path id="path0" d="M191.074 82.426 C 159.067 85.247,127.966 102.091,109.179 126.779 C 108.692 127.419,108.228 128.001,108.149 128.072 C 107.833 128.357,104.240 133.533,102.672 135.964 C 98.094 143.058,93.041 153.566,90.541 161.190 C 87.726 169.775,86.475 175.434,84.825 187.063 C 84.346 190.435,84.342 207.187,84.818 210.608 C 89.173 241.867,100.237 264.214,121.181 284.050 C 143.766 305.441,175.771 317.367,205.989 315.652 C 218.901 314.919,218.205 315.012,227.555 312.749 C 261.637 304.500,288.903 283.447,304.716 253.169 C 318.184 227.383,321.461 198.836,314.325 169.470 C 301.189 115.415,247.443 77.458,191.074 82.426 M267.658 110.762 C 272.926 112.189,272.955 120.157,267.727 129.725 C 267.191 130.706,266.753 131.553,266.753 131.609 C 266.753 131.835,263.332 136.850,262.175 138.319 C 254.649 147.878,246.984 152.453,228.848 158.211 C 221.407 160.573,219.015 165.235,218.087 179.181 C 217.583 186.770,217.922 265.850,218.477 269.987 C 219.565 278.100,221.645 281.005,229.495 285.374 C 235.269 288.588,235.816 294.389,230.538 296.434 C 229.120 296.984,178.689 297.296,174.796 296.779 C 170.958 296.269,169.332 294.679,169.350 291.450 C 169.367 288.502,170.574 287.113,175.410 284.476 C 181.214 281.312,183.569 278.345,184.603 272.895 C 185.447 268.446,185.540 263.818,185.455 230.401 L 185.372 197.283 184.789 195.561 C 184.016 193.274,182.426 191.589,179.819 190.297 C 176.683 188.742,175.938 187.712,175.938 184.932 C 175.938 177.152,186.544 165.427,200.320 157.976 C 203.478 156.268,203.498 156.342,199.741 155.774 C 192.960 154.748,191.346 154.603,186.934 154.624 C 175.242 154.677,167.829 158.338,155.931 169.936 C 149.729 175.981,148.543 176.534,145.809 174.654 C 143.387 172.987,142.891 170.732,144.095 166.860 C 145.102 163.622,148.271 155.329,150.068 151.229 C 151.360 148.280,154.276 138.943,156.249 131.436 C 159.878 117.627,163.842 114.983,180.854 115.022 C 191.325 115.047,195.658 115.847,213.325 121.018 C 215.032 121.518,217.245 122.156,218.241 122.435 C 233.850 126.811,243.810 126.210,252.750 120.353 C 254.658 119.104,255.110 118.714,259.310 114.689 C 263.595 110.585,264.841 109.998,267.658 110.762 " stroke="none" fill="#040404" fill-rule="evenodd"></path><path id="path1" d="M224.219 5.440 C 222.935 6.686,223.560 10.867,225.139 11.592 C 225.233 11.636,225.633 11.970,226.027 12.335 C 226.859 13.106,229.385 13.092,230.246 12.313 C 231.214 11.437,232.342 11.908,232.342 13.189 C 232.342 13.682,232.827 13.972,233.656 13.972 C 233.929 13.972,234.153 14.086,234.153 14.227 C 234.153 14.367,234.680 14.614,235.325 14.777 C 235.970 14.939,236.607 15.275,236.739 15.523 C 237.260 16.496,239.402 16.371,242.493 15.187 C 243.309 14.874,243.979 14.477,243.981 14.304 C 243.983 14.131,244.217 13.865,244.502 13.713 C 245.487 13.186,245.120 11.273,243.797 10.032 C 242.160 8.497,242.294 8.538,238.919 8.538 C 235.967 8.538,235.728 8.575,235.576 9.056 C 235.309 9.896,235.024 9.647,235.138 8.674 C 235.252 7.693,234.064 5.435,233.433 5.434 C 233.251 5.434,233.034 5.259,232.953 5.045 C 232.829 4.722,232.147 4.662,228.886 4.685 L 224.968 4.713 224.219 5.440 M263.610 5.466 C 262.465 5.886,262.256 7.734,263.226 8.862 C 264.356 10.176,267.582 9.837,267.951 8.366 C 268.555 5.962,266.324 4.472,263.610 5.466 M279.948 10.739 C 277.827 11.499,278.557 17.076,280.777 17.076 C 282.791 17.076,284.124 13.780,282.794 12.090 C 282.510 11.728,282.277 11.318,282.277 11.180 C 282.277 11.041,282.073 10.855,281.824 10.767 C 281.575 10.680,281.255 10.564,281.113 10.511 C 280.970 10.458,280.446 10.561,279.948 10.739 M248.645 11.378 C 248.142 12.318,248.952 13.713,250.000 13.713 C 251.321 13.713,251.876 12.697,251.331 11.276 C 251.085 10.636,249.000 10.715,248.645 11.378 M206.734 15.648 C 206.240 16.007,205.621 16.300,205.359 16.300 C 205.097 16.300,204.644 16.427,204.353 16.583 C 203.947 16.801,203.550 16.761,202.640 16.414 C 201.395 15.938,200.165 15.878,194.886 16.030 C 192.043 16.112,191.627 16.185,190.890 16.728 C 190.280 17.178,189.726 17.335,188.747 17.335 C 188.020 17.335,187.286 17.475,187.115 17.646 C 186.874 17.887,186.736 17.887,186.494 17.646 C 186.323 17.475,185.545 17.335,184.764 17.335 C 183.649 17.335,183.213 17.211,182.726 16.753 C 181.684 15.774,175.938 15.750,175.938 16.724 C 175.938 16.945,175.709 17.185,175.429 17.258 C 175.149 17.331,174.850 17.611,174.765 17.880 C 174.658 18.217,174.367 18.370,173.838 18.370 C 173.413 18.370,172.748 18.535,172.359 18.736 C 171.969 18.937,171.212 19.184,170.675 19.285 C 170.070 19.398,169.546 19.702,169.296 20.083 C 169.074 20.422,168.728 20.699,168.526 20.699 C 168.325 20.699,168.093 20.873,168.011 21.087 C 167.902 21.369,167.458 21.475,166.372 21.475 C 165.274 21.475,164.709 21.611,164.224 21.992 C 163.863 22.277,163.269 22.510,162.906 22.510 C 162.543 22.510,162.019 22.753,161.742 23.049 C 161.277 23.549,161.195 23.560,160.628 23.188 C 160.241 22.935,159.065 22.722,157.434 22.611 C 155.970 22.511,154.630 22.282,154.341 22.084 C 153.649 21.609,152.229 21.632,152.041 22.122 C 151.959 22.335,151.718 22.510,151.505 22.510 C 151.292 22.510,150.993 22.743,150.841 23.027 C 150.641 23.401,150.297 23.545,149.603 23.547 C 147.794 23.553,146.639 23.856,146.507 24.360 C 146.396 24.785,146.093 24.838,143.801 24.838 C 141.457 24.838,141.207 24.885,141.087 25.344 C 140.924 25.968,139.746 26.154,136.513 26.065 C 134.382 26.007,134.188 26.045,133.829 26.585 C 133.617 26.905,133.220 27.167,132.949 27.167 C 132.677 27.167,132.388 27.342,132.306 27.555 C 132.224 27.768,132.013 27.943,131.836 27.943 C 131.660 27.943,131.305 28.176,131.048 28.461 C 130.482 29.086,130.061 29.116,129.604 28.564 C 128.688 27.462,121.852 28.477,120.357 29.938 C 120.169 30.121,119.664 30.272,119.235 30.272 C 118.611 30.272,118.397 30.423,118.171 31.022 C 117.951 31.606,117.588 31.874,116.530 32.234 C 115.606 32.548,115.125 32.866,115.028 33.230 C 114.775 34.171,114.882 35.302,115.273 35.819 C 116.260 37.123,115.505 38.598,113.702 38.891 C 113.148 38.981,112.376 39.290,111.985 39.579 C 111.595 39.867,111.126 40.107,110.942 40.111 C 109.470 40.145,108.178 42.779,108.938 44.197 C 109.589 45.413,109.576 45.626,108.797 46.467 C 108.441 46.851,108.150 47.264,108.150 47.386 C 108.150 47.507,107.807 47.607,107.389 47.607 C 106.941 47.607,106.487 47.805,106.289 48.086 C 105.720 48.892,103.788 49.052,98.175 48.755 C 95.084 48.592,95.048 48.596,94.256 49.263 C 93.817 49.633,93.332 49.935,93.180 49.935 C 93.028 49.935,92.778 50.168,92.626 50.453 C 92.274 51.110,91.798 51.110,91.203 50.453 C 90.574 49.758,88.923 49.758,88.040 50.453 C 87.526 50.857,86.990 50.970,85.597 50.970 C 84.211 50.970,83.778 51.061,83.656 51.378 C 83.570 51.603,83.225 51.891,82.888 52.019 C 82.552 52.146,82.277 52.459,82.277 52.713 C 82.277 52.967,82.044 53.320,81.759 53.498 C 81.475 53.675,81.242 54.068,81.242 54.371 C 81.242 54.674,80.951 55.191,80.595 55.521 C 80.239 55.850,79.948 56.409,79.948 56.761 C 79.948 57.229,79.791 57.425,79.366 57.485 C 78.972 57.541,78.619 57.923,78.273 58.668 C 77.992 59.272,77.614 59.767,77.432 59.767 C 77.251 59.767,77.102 59.935,77.102 60.141 C 77.102 60.346,76.882 60.668,76.613 60.856 C 76.345 61.045,75.934 61.604,75.701 62.100 C 75.468 62.596,75.107 63.292,74.900 63.648 C 74.690 64.008,74.521 64.954,74.519 65.783 L 74.515 67.270 73.489 67.270 C 72.728 67.270,72.392 67.137,72.186 66.753 C 71.413 65.308,69.340 66.480,69.340 68.363 C 69.340 69.304,69.307 69.340,68.452 69.340 C 66.355 69.340,65.754 70.166,66.247 72.367 C 66.441 73.231,66.442 73.627,66.250 73.691 C 66.100 73.741,65.977 73.991,65.977 74.248 C 65.977 74.504,65.744 74.774,65.459 74.849 C 65.175 74.923,64.942 75.169,64.942 75.396 C 64.942 75.666,64.713 75.809,64.278 75.809 C 62.349 75.809,61.671 79.408,63.255 81.242 C 63.440 81.455,63.670 82.003,63.767 82.459 C 63.871 82.949,64.147 83.353,64.442 83.447 C 64.717 83.534,64.942 83.766,64.942 83.963 C 64.942 84.160,65.122 84.422,65.343 84.545 C 65.593 84.686,65.832 85.393,65.979 86.429 C 66.115 87.396,66.380 88.211,66.612 88.381 C 67.235 88.836,67.131 88.874,65.201 88.889 C 63.721 88.901,63.321 88.995,63.010 89.406 C 62.582 89.972,62.473 92.109,62.872 92.109 C 63.014 92.109,63.131 92.274,63.131 92.475 C 63.131 92.677,63.276 92.894,63.454 92.957 C 63.632 93.021,63.684 93.173,63.569 93.295 C 63.455 93.417,63.263 93.357,63.142 93.162 C 62.560 92.220,58.473 93.871,58.473 95.049 C 58.473 95.282,58.303 95.472,58.094 95.472 C 57.886 95.472,57.586 95.714,57.428 96.009 C 57.270 96.305,56.917 96.770,56.643 97.044 C 56.369 97.318,56.145 97.699,56.145 97.890 C 56.145 98.081,55.912 98.449,55.627 98.706 C 55.343 98.964,55.108 99.360,55.105 99.587 C 55.103 99.814,54.812 100.274,54.459 100.609 C 54.105 100.944,53.816 101.314,53.816 101.430 C 53.816 101.546,53.380 102.101,52.846 102.664 C 50.829 104.791,49.917 105.973,49.769 106.655 C 49.684 107.042,49.396 107.428,49.128 107.513 C 48.861 107.598,48.642 107.892,48.642 108.168 C 48.642 108.443,48.481 108.668,48.285 108.668 C 48.089 108.668,47.774 109.041,47.585 109.497 C 47.395 109.954,47.032 110.536,46.777 110.791 C 46.126 111.441,46.156 113.314,46.831 114.172 C 47.115 114.533,47.348 115.107,47.348 115.445 C 47.348 115.784,47.598 116.523,47.904 117.086 C 48.862 118.855,48.718 126.022,47.737 125.347 C 47.538 125.209,46.921 124.774,46.367 124.378 C 45.812 123.983,45.193 123.723,44.992 123.800 C 43.838 124.243,43.653 127.923,44.713 129.356 C 45.024 129.777,45.278 130.312,45.278 130.544 C 45.278 130.777,45.511 131.028,45.796 131.102 C 46.080 131.177,46.313 131.441,46.313 131.690 C 46.313 131.939,46.546 132.438,46.831 132.800 C 47.341 133.449,47.554 135.058,47.130 135.058 C 46.855 135.058,46.313 136.837,46.313 137.740 C 46.313 138.115,46.208 138.422,46.080 138.422 C 45.788 138.422,45.278 139.846,45.278 140.660 C 45.278 140.994,45.156 141.268,45.006 141.268 C 44.857 141.268,44.570 141.661,44.369 142.142 C 44.063 142.875,43.555 143.338,43.058 143.338 C 42.998 143.338,42.950 143.131,42.950 142.878 C 42.950 141.583,41.039 140.695,40.155 141.578 C 39.206 142.528,39.976 145.149,41.205 145.149 C 42.025 145.149,42.027 145.151,41.455 145.552 C 41.138 145.773,40.880 146.122,40.880 146.328 C 40.880 146.533,40.713 146.701,40.509 146.701 C 40.305 146.701,40.064 146.934,39.974 147.219 C 39.884 147.503,39.695 147.736,39.555 147.736 C 39.415 147.736,39.121 148.173,38.900 148.706 C 38.680 149.240,38.349 149.851,38.166 150.065 C 37.983 150.278,37.754 150.823,37.658 151.276 C 37.562 151.728,37.328 152.227,37.140 152.384 C 36.951 152.540,36.714 153.218,36.613 153.889 C 36.513 154.561,36.301 155.190,36.143 155.288 C 35.985 155.386,35.774 156.420,35.674 157.587 C 35.572 158.769,35.354 159.794,35.181 159.900 C 34.838 160.113,34.440 161.865,34.423 163.243 C 34.416 163.784,34.194 164.364,33.857 164.722 C 33.388 165.221,33.288 165.697,33.202 167.821 C 33.126 169.677,32.998 170.406,32.708 170.618 C 32.429 170.822,32.271 171.595,32.161 173.286 C 32.041 175.143,31.901 175.763,31.527 176.102 C 31.258 176.345,31.047 176.887,31.046 177.336 C 31.045 177.777,30.813 178.486,30.530 178.913 C 30.248 179.340,30.016 180.014,30.015 180.412 C 30.014 180.809,29.783 181.449,29.501 181.835 C 29.107 182.375,28.953 183.130,28.830 185.123 C 28.743 186.546,28.513 188.064,28.321 188.497 C 28.128 188.930,27.889 190.386,27.790 191.732 C 27.691 193.077,27.452 194.408,27.259 194.689 C 26.789 195.372,26.808 197.699,27.288 198.333 C 27.834 199.056,27.841 203.762,27.296 204.306 C 26.769 204.833,26.743 208.855,27.264 209.288 C 27.460 209.450,27.698 210.075,27.795 210.678 C 27.891 211.280,28.152 212.051,28.375 212.393 C 28.630 212.781,28.829 213.844,28.909 215.239 C 28.980 216.491,29.196 217.719,29.401 218.047 C 29.629 218.409,29.824 219.727,29.920 221.540 C 30.019 223.427,30.216 224.723,30.481 225.226 C 30.789 225.811,30.925 227.128,31.033 230.569 C 31.151 234.292,31.256 235.223,31.602 235.614 C 31.835 235.877,32.108 236.590,32.208 237.198 C 32.307 237.805,32.547 238.461,32.740 238.654 C 32.934 238.848,33.170 239.340,33.265 239.749 C 33.361 240.157,33.592 240.616,33.779 240.767 C 33.998 240.944,34.226 242.245,34.415 244.389 C 34.603 246.538,34.830 247.831,35.049 248.002 C 35.268 248.174,35.456 249.261,35.579 251.063 C 35.715 253.058,35.871 253.896,36.125 253.994 C 36.335 254.074,36.484 254.517,36.487 255.073 C 36.496 256.356,36.911 258.056,37.244 258.167 C 37.394 258.217,37.516 258.405,37.516 258.586 C 37.516 258.766,37.807 259.461,38.163 260.130 C 38.519 260.799,38.810 261.517,38.810 261.724 C 38.810 261.931,39.043 262.300,39.327 262.544 C 39.612 262.788,39.845 263.252,39.845 263.576 C 39.845 263.900,40.078 264.398,40.362 264.683 C 40.647 264.968,40.880 265.492,40.880 265.847 C 40.880 266.203,41.113 266.727,41.397 267.012 C 41.682 267.296,41.915 267.745,41.915 268.008 C 41.915 268.673,42.440 270.116,42.682 270.116 C 42.792 270.116,42.950 270.534,43.033 271.045 C 43.115 271.556,43.323 272.142,43.493 272.347 C 43.927 272.869,44.996 275.925,45.322 277.574 C 45.472 278.332,45.757 279.014,45.954 279.090 C 46.172 279.173,46.313 279.609,46.313 280.200 C 46.313 280.757,46.520 281.436,46.797 281.789 C 47.063 282.129,47.363 282.786,47.465 283.249 C 47.566 283.713,47.872 284.212,48.145 284.358 C 48.418 284.504,48.642 284.778,48.642 284.968 C 48.642 285.157,48.875 285.608,49.159 285.970 C 49.444 286.332,49.677 286.824,49.677 287.064 C 49.677 287.304,49.896 287.557,50.165 287.628 C 50.495 287.714,50.704 288.076,50.812 288.750 C 50.921 289.432,51.134 289.797,51.488 289.910 C 51.772 290.000,52.005 290.227,52.005 290.414 C 52.005 290.831,52.813 291.066,54.269 291.070 C 55.044 291.073,55.369 291.182,55.369 291.440 C 55.369 291.642,55.514 291.866,55.692 291.938 C 55.937 292.037,55.923 292.133,55.636 292.333 C 55.051 292.740,55.154 295.451,55.771 295.903 C 57.152 296.912,58.306 295.906,58.175 293.807 C 58.069 292.105,58.025 292.130,59.104 293.273 C 59.805 294.016,60.144 294.179,60.999 294.179 C 61.689 294.179,62.091 294.310,62.190 294.569 C 62.273 294.784,62.625 295.089,62.974 295.248 C 63.323 295.407,63.672 295.790,63.749 296.099 C 63.972 296.987,66.418 298.836,67.370 298.837 C 67.813 298.837,68.991 299.249,69.987 299.751 C 71.121 300.324,72.346 300.723,73.265 300.820 C 74.401 300.940,74.760 301.084,74.858 301.458 C 74.927 301.723,75.169 301.940,75.396 301.940 C 75.995 301.940,75.907 302.909,75.291 303.105 C 75.006 303.195,74.774 303.436,74.774 303.640 C 74.774 303.863,74.516 304.010,74.127 304.010 C 73.771 304.010,73.480 303.891,73.480 303.746 C 73.480 303.601,73.189 303.349,72.833 303.187 C 72.477 303.025,72.186 302.739,72.186 302.551 C 72.186 301.654,68.464 301.559,67.753 302.437 C 66.981 303.390,67.152 304.137,68.435 305.420 C 69.075 306.060,69.602 306.674,69.606 306.785 C 69.617 307.116,71.705 307.978,72.497 307.978 C 73.060 307.978,73.262 308.119,73.356 308.581 C 73.424 308.913,73.540 309.476,73.614 309.832 C 73.688 310.188,73.921 310.479,74.132 310.479 C 74.342 310.479,74.515 310.620,74.515 310.793 C 74.515 310.966,74.747 311.344,75.031 311.634 C 76.771 313.409,77.380 314.877,76.378 314.877 C 76.081 314.877,75.794 314.550,75.585 313.972 C 75.405 313.473,75.104 313.066,74.916 313.066 C 74.729 313.066,74.514 312.834,74.440 312.550 C 74.366 312.266,74.099 311.955,73.848 311.858 C 73.596 311.761,73.177 311.470,72.918 311.210 C 72.126 310.418,70.761 310.581,70.375 311.514 C 70.198 311.940,69.951 312.290,69.826 312.290 C 69.701 312.290,69.599 312.523,69.599 312.807 C 69.599 313.092,69.701 313.325,69.825 313.325 C 69.949 313.325,70.121 313.767,70.208 314.309 C 70.301 314.895,70.628 315.521,71.017 315.859 C 71.375 316.171,71.669 316.543,71.669 316.687 C 71.669 316.830,71.843 316.947,72.057 316.947 C 72.270 316.947,72.445 317.118,72.445 317.326 C 72.445 317.534,72.707 317.841,73.027 318.008 C 73.347 318.174,73.818 318.528,74.072 318.793 C 74.327 319.058,74.822 319.276,75.172 319.276 C 75.570 319.276,75.809 319.423,75.809 319.670 C 75.809 319.887,76.084 320.169,76.420 320.297 C 76.756 320.425,77.102 320.713,77.188 320.937 C 77.539 321.853,80.207 320.667,80.207 319.596 C 80.207 319.371,80.400 319.435,80.773 319.783 C 81.085 320.073,81.550 320.310,81.808 320.310 C 82.066 320.310,82.277 320.466,82.277 320.655 C 82.277 321.171,84.698 322.639,85.550 322.639 C 86.003 322.639,86.414 322.834,86.605 323.140 C 86.785 323.428,87.274 323.674,87.761 323.722 C 88.542 323.797,88.619 323.890,88.799 324.968 C 88.910 325.637,89.215 326.315,89.516 326.562 C 89.803 326.798,90.039 327.064,90.039 327.154 C 90.039 327.243,90.805 328.087,91.742 329.028 C 93.298 330.592,93.432 330.811,93.289 331.571 C 93.103 332.560,93.320 333.247,93.818 333.247 C 94.016 333.247,94.179 333.491,94.179 333.789 C 94.179 334.113,94.386 334.385,94.696 334.466 C 95.134 334.580,95.213 334.819,95.213 336.014 C 95.213 337.808,96.156 338.939,97.652 338.939 C 98.514 338.939,98.577 338.994,98.577 339.740 C 98.577 340.322,98.718 340.577,99.094 340.675 C 99.379 340.750,99.612 340.963,99.612 341.150 C 99.612 341.537,101.781 343.079,102.324 343.079 C 102.521 343.079,102.754 343.306,102.842 343.583 C 102.930 343.860,103.240 344.163,103.532 344.256 C 103.823 344.348,104.283 344.645,104.553 344.916 C 104.824 345.186,105.270 345.408,105.545 345.408 C 105.820 345.408,106.119 345.640,106.210 345.925 C 106.300 346.211,106.601 346.442,106.882 346.442 C 107.161 346.442,107.455 346.611,107.534 346.818 C 107.614 347.025,108.089 347.329,108.591 347.495 C 109.093 347.660,109.723 348.015,109.991 348.284 C 110.307 348.600,110.845 348.771,111.522 348.771 C 112.210 348.771,112.615 348.903,112.714 349.159 C 112.796 349.373,113.078 349.547,113.342 349.547 C 113.606 349.547,114.064 349.807,114.360 350.125 C 115.581 351.435,117.962 350.502,117.976 348.706 C 117.984 347.789,118.343 347.804,119.043 348.752 C 119.351 349.168,119.849 349.571,120.151 349.648 C 121.325 349.946,121.924 353.136,120.997 354.160 C 120.404 354.816,120.462 355.681,121.125 356.036 C 121.901 356.451,123.949 356.179,124.370 355.604 C 124.684 355.175,124.709 355.174,124.709 355.586 C 124.709 355.831,124.884 356.099,125.097 356.181 C 125.571 356.362,125.685 362.743,125.215 362.743 C 124.325 362.743,123.605 363.994,123.639 365.482 C 123.667 366.680,123.565 367.095,123.126 367.561 C 121.747 369.030,122.547 372.036,124.229 371.700 C 125.372 371.471,126.216 370.797,126.564 369.833 C 126.813 369.144,127.027 368.952,127.544 368.952 C 127.969 368.952,128.502 368.629,129.036 368.047 C 129.532 367.506,130.112 367.141,130.473 367.141 C 131.484 367.141,132.063 366.526,132.090 365.422 C 132.104 364.873,132.137 363.580,132.164 362.549 L 132.212 360.673 133.185 360.673 C 133.877 360.673,134.251 360.822,134.481 361.190 C 134.658 361.475,135.036 361.708,135.319 361.708 C 135.603 361.708,135.834 361.801,135.834 361.914 C 135.834 362.028,136.242 362.268,136.740 362.449 C 137.238 362.629,137.646 362.939,137.646 363.138 C 137.646 363.594,138.451 364.036,139.283 364.036 C 139.632 364.036,139.982 364.200,140.058 364.400 C 140.135 364.600,140.532 364.837,140.941 364.927 C 141.383 365.024,141.869 365.402,142.139 365.858 C 142.388 366.281,142.935 366.803,143.353 367.020 C 143.910 367.308,144.115 367.602,144.118 368.118 C 144.120 368.506,144.287 369.114,144.490 369.470 C 144.693 369.825,145.034 370.494,145.248 370.955 C 145.489 371.473,146.011 371.967,146.614 372.248 C 147.151 372.499,147.798 372.908,148.052 373.157 C 148.305 373.406,148.775 373.609,149.097 373.609 C 149.418 373.609,149.827 373.842,150.005 374.127 C 150.182 374.411,150.532 374.644,150.782 374.644 C 151.032 374.644,151.671 374.877,152.202 375.162 C 152.733 375.446,153.372 375.681,153.621 375.684 C 153.871 375.686,154.349 375.977,154.684 376.330 C 155.019 376.684,155.543 376.975,155.849 376.979 C 156.154 376.982,156.695 377.212,157.050 377.490 C 157.415 377.776,158.105 377.999,158.633 378.002 C 159.169 378.005,159.849 378.229,160.226 378.525 C 160.588 378.810,161.244 379.043,161.684 379.043 C 162.317 379.043,162.808 379.367,164.036 380.595 C 164.890 381.449,165.691 382.147,165.817 382.147 C 165.943 382.147,166.105 382.373,166.177 382.648 C 166.265 382.987,166.629 383.206,167.306 383.327 C 167.856 383.426,168.517 383.692,168.777 383.919 C 169.632 384.667,172.291 384.807,187.577 384.905 L 202.708 385.002 203.159 384.416 C 203.728 383.677,203.737 383.220,203.194 382.621 C 202.790 382.174,202.803 382.147,203.420 382.147 C 203.947 382.147,204.107 382.306,204.238 382.960 C 204.689 385.215,208.279 385.087,208.279 382.816 C 208.279 381.844,209.669 381.655,214.049 382.032 C 215.768 382.180,216.140 382.138,216.569 381.751 C 216.986 381.373,217.639 381.287,220.439 381.242 C 223.017 381.202,223.913 381.097,224.258 380.798 C 224.506 380.582,225.291 380.331,226.003 380.240 C 226.714 380.148,227.612 379.842,227.997 379.558 C 228.473 379.209,229.107 379.043,229.968 379.043 C 230.845 379.043,231.440 378.883,231.895 378.525 C 232.333 378.181,232.944 378.008,233.726 378.008 C 234.581 378.008,234.992 377.876,235.240 377.521 C 235.428 377.254,235.813 376.990,236.096 376.936 C 236.392 376.880,236.646 376.592,236.693 376.259 C 236.739 375.940,236.930 375.679,237.118 375.679 C 237.535 375.679,237.775 375.110,237.775 374.124 C 237.775 372.980,238.809 371.513,239.532 371.633 C 239.857 371.686,241.142 371.628,242.386 371.503 C 243.727 371.369,245.592 371.375,246.968 371.517 C 249.514 371.781,250.453 371.507,250.453 370.499 C 250.453 369.958,250.830 369.810,251.100 370.246 C 251.188 370.388,251.486 370.505,251.762 370.505 C 252.038 370.505,252.264 370.621,252.264 370.763 C 252.264 371.369,254.336 370.725,255.433 369.780 C 256.396 368.950,255.646 367.141,254.338 367.141 C 254.120 367.141,253.795 366.908,253.618 366.624 C 253.374 366.234,253.014 366.106,252.163 366.106 C 250.944 366.106,250.723 366.393,250.715 367.982 C 250.711 368.846,250.381 368.885,249.625 368.111 C 249.313 367.791,248.710 367.354,248.286 367.141 C 247.073 366.530,247.186 366.194,248.672 365.997 C 249.411 365.899,250.318 365.667,250.687 365.481 C 252.029 364.807,252.646 364.785,252.920 365.404 C 253.142 365.908,253.350 365.971,254.643 365.928 C 255.976 365.883,256.120 365.931,256.194 366.445 C 256.269 366.975,256.429 367.016,258.684 367.086 L 261.093 367.161 261.875 366.324 C 262.482 365.675,262.631 365.312,262.542 364.705 C 262.455 364.109,262.572 363.810,263.038 363.444 C 264.322 362.433,263.782 359.638,262.303 359.638 C 260.837 359.638,261.373 357.584,262.937 357.211 C 263.328 357.117,263.648 356.868,263.648 356.657 C 263.648 356.447,263.801 356.274,263.987 356.274 C 264.174 356.274,264.561 356.056,264.848 355.788 C 265.135 355.521,265.625 355.222,265.936 355.123 C 266.248 355.024,266.736 354.486,267.021 353.927 C 267.390 353.204,267.706 352.910,268.117 352.910 C 268.434 352.909,269.075 352.676,269.541 352.392 C 270.006 352.108,270.609 351.876,270.880 351.876 C 271.425 351.876,272.854 350.596,273.567 349.471 C 273.818 349.073,274.298 348.644,274.633 348.517 C 274.967 348.390,275.317 348.162,275.411 348.011 C 275.514 347.843,276.726 347.736,278.521 347.736 C 281.348 347.736,281.494 347.709,282.317 347.025 C 283.578 345.977,284.329 345.075,284.339 344.598 C 284.363 343.358,285.056 343.639,285.214 344.953 C 285.575 347.957,285.482 348.436,284.505 348.619 C 283.594 348.790,283.323 349.242,283.315 350.595 C 283.302 352.997,287.724 351.915,288.391 349.353 C 288.474 349.033,288.684 348.771,288.856 348.771 C 289.028 348.771,289.422 348.480,289.732 348.124 C 290.041 347.768,290.471 347.477,290.686 347.477 C 290.902 347.477,291.278 347.245,291.522 346.960 C 291.766 346.675,292.164 346.442,292.407 346.442 C 292.651 346.442,292.924 346.210,293.014 345.925 C 293.105 345.640,293.403 345.408,293.678 345.408 C 293.954 345.408,294.400 345.186,294.670 344.916 C 294.940 344.646,295.517 344.347,295.952 344.252 C 296.404 344.152,296.810 343.864,296.901 343.578 C 296.988 343.304,297.280 343.079,297.550 343.079 C 297.820 343.079,298.166 342.846,298.318 342.561 C 298.471 342.277,298.760 342.044,298.961 342.044 C 299.163 342.044,299.421 341.882,299.534 341.684 C 299.648 341.486,300.149 341.137,300.647 340.909 C 301.763 340.397,303.319 339.465,303.493 339.204 C 303.564 339.097,303.884 338.927,304.204 338.827 C 304.525 338.727,304.787 338.531,304.787 338.391 C 304.787 338.251,305.199 337.964,305.703 337.754 C 306.208 337.543,306.686 337.199,306.766 336.991 C 306.846 336.782,307.073 336.611,307.270 336.611 C 307.467 336.611,307.774 336.378,307.951 336.093 C 308.129 335.809,308.417 335.576,308.591 335.576 C 308.766 335.576,309.028 335.351,309.176 335.076 C 309.323 334.801,309.676 334.502,309.961 334.411 C 310.246 334.321,310.479 334.088,310.479 333.894 C 310.479 333.700,310.701 333.470,310.972 333.384 C 311.244 333.298,311.531 333.057,311.611 332.849 C 311.691 332.641,311.905 332.470,312.088 332.468 C 312.270 332.467,312.986 331.943,313.679 331.304 C 314.371 330.665,315.070 330.139,315.231 330.135 C 315.789 330.122,321.345 324.488,321.345 323.936 C 321.345 323.792,321.531 323.674,321.758 323.674 C 321.985 323.674,322.231 323.441,322.305 323.157 C 322.380 322.872,322.613 322.639,322.823 322.639 C 323.033 322.639,323.265 322.410,323.338 322.130 C 323.411 321.850,323.685 321.553,323.947 321.470 C 324.209 321.387,324.496 321.092,324.584 320.815 C 324.672 320.537,324.921 320.310,325.139 320.310 C 325.356 320.310,325.594 320.078,325.669 319.793 C 325.743 319.508,325.956 319.276,326.141 319.276 C 326.551 319.276,329.884 315.672,329.884 315.228 C 329.884 315.054,330.116 314.838,330.401 314.748 C 330.686 314.657,330.918 314.426,330.918 314.233 C 330.918 314.040,331.210 313.536,331.565 313.113 C 331.921 312.690,332.212 312.224,332.212 312.076 C 332.212 311.928,332.445 311.733,332.730 311.643 C 333.014 311.553,333.247 311.254,333.247 310.979 C 333.247 310.704,333.408 310.479,333.605 310.479 C 333.803 310.479,334.139 310.211,334.354 309.883 C 334.569 309.555,335.368 308.639,336.130 307.846 C 339.545 304.294,340.750 302.899,340.751 302.499 C 340.753 301.939,341.669 300.417,342.457 299.666 C 342.799 299.340,343.079 298.776,343.079 298.413 C 343.079 297.974,343.249 297.708,343.588 297.619 C 343.868 297.546,344.163 297.277,344.244 297.021 C 344.326 296.764,344.562 296.490,344.771 296.410 C 344.979 296.330,345.149 296.090,345.149 295.878 C 345.149 295.665,345.382 295.366,345.666 295.213 C 345.951 295.061,346.184 294.713,346.184 294.440 C 346.184 294.167,346.475 293.652,346.831 293.296 C 347.186 292.941,347.477 292.459,347.477 292.226 C 347.477 291.993,347.710 291.506,347.995 291.144 C 348.279 290.783,348.512 290.287,348.512 290.044 C 348.512 289.801,348.745 289.391,349.030 289.133 C 349.314 288.876,349.547 288.463,349.547 288.215 C 349.547 287.968,349.718 287.700,349.927 287.620 C 350.136 287.540,350.486 287.091,350.705 286.622 C 350.924 286.153,351.388 285.304,351.735 284.735 C 352.636 283.258,352.911 282.590,352.911 281.872 C 352.911 281.492,353.061 281.242,353.289 281.242 C 353.513 281.242,353.784 280.806,353.956 280.168 C 354.115 279.577,354.411 278.929,354.613 278.727 C 354.815 278.524,354.981 278.046,354.981 277.663 C 354.981 277.248,355.189 276.838,355.498 276.645 C 355.852 276.424,356.016 276.041,356.016 275.436 C 356.016 274.792,356.150 274.507,356.507 274.394 C 356.778 274.308,357.076 273.931,357.170 273.556 C 357.264 273.181,357.567 272.587,357.843 272.236 C 358.118 271.886,358.344 271.352,358.344 271.049 C 358.344 270.747,358.577 270.354,358.862 270.176 C 359.146 269.999,359.379 269.689,359.379 269.489 C 359.379 269.289,359.482 269.086,359.609 269.038 C 359.825 268.957,360.057 268.557,361.320 266.084 C 361.604 265.527,361.983 264.978,362.160 264.864 C 362.338 264.750,362.484 264.332,362.484 263.934 C 362.484 263.536,362.706 263.010,362.978 262.764 C 363.250 262.518,363.549 262.010,363.643 261.635 C 363.737 261.261,364.039 260.797,364.313 260.605 C 364.588 260.413,364.812 260.115,364.812 259.944 C 364.812 259.773,365.045 259.487,365.330 259.310 C 365.614 259.132,365.847 258.827,365.847 258.632 C 365.847 258.438,366.040 258.118,366.276 257.923 C 366.511 257.728,366.862 257.190,367.055 256.727 C 367.249 256.265,367.516 255.886,367.650 255.886 C 367.784 255.886,367.969 255.483,368.062 254.990 C 368.154 254.497,368.389 253.961,368.584 253.800 C 368.779 253.638,369.013 253.081,369.103 252.561 C 369.194 252.042,369.451 251.473,369.674 251.296 C 369.971 251.061,370.134 250.229,370.281 248.191 C 370.392 246.660,370.657 244.942,370.870 244.373 C 371.083 243.803,371.263 242.552,371.269 241.591 C 371.278 240.200,371.386 239.740,371.798 239.327 C 372.275 238.850,372.316 238.465,372.316 234.393 C 372.316 230.923,372.394 229.897,372.683 229.609 C 373.076 229.216,373.181 228.325,373.602 221.863 C 373.750 219.586,373.995 216.734,374.147 215.524 C 374.298 214.314,374.478 208.846,374.547 203.372 C 374.616 197.897,374.763 193.564,374.874 193.743 C 375.179 194.238,376.767 194.402,377.312 193.995 C 377.922 193.539,378.264 189.883,377.754 189.269 C 377.247 188.658,375.248 188.743,374.843 189.392 C 374.579 189.815,373.940 190.105,373.844 189.845 C 373.831 189.809,373.680 187.661,373.509 185.072 C 373.259 181.307,373.109 180.266,372.756 179.877 C 372.461 179.550,372.316 178.949,372.316 178.050 C 372.316 177.029,372.192 176.603,371.798 176.266 C 371.324 175.860,371.281 175.503,371.281 172.034 C 371.281 168.637,371.227 168.178,370.763 167.588 C 370.389 167.113,370.246 166.538,370.246 165.518 C 370.246 164.498,370.102 163.923,369.728 163.448 C 369.214 162.795,369.012 161.449,369.428 161.449 C 370.488 161.449,370.640 154.285,369.599 153.380 C 369.243 153.071,368.952 152.660,368.952 152.468 C 368.952 152.276,368.777 152.051,368.564 151.969 C 368.351 151.887,368.176 151.664,368.176 151.473 C 368.176 151.282,368.020 151.032,367.829 150.918 C 367.638 150.805,367.259 150.362,366.988 149.935 C 366.716 149.508,366.125 148.786,365.674 148.330 L 364.854 147.502 364.769 144.105 C 364.699 141.354,364.604 140.650,364.268 140.405 C 364.021 140.224,363.779 139.506,363.669 138.628 C 363.567 137.808,363.263 136.872,362.984 136.518 C 362.709 136.168,362.484 135.506,362.484 135.046 C 362.484 134.586,362.238 133.673,361.938 133.017 C 361.639 132.361,361.232 131.475,361.036 131.048 C 360.839 130.621,360.601 129.584,360.506 128.744 C 360.398 127.788,360.154 127.037,359.856 126.738 C 359.594 126.476,359.379 126.151,359.379 126.016 C 359.379 125.881,359.117 125.477,358.797 125.119 C 357.448 123.610,357.050 123.099,357.050 122.876 C 357.050 122.746,356.818 122.639,356.533 122.639 C 356.131 122.639,356.016 122.467,356.016 121.865 C 356.016 121.371,355.828 120.974,355.498 120.768 C 355.213 120.590,354.981 120.299,354.981 120.121 C 354.981 119.943,354.748 119.652,354.463 119.474 C 354.179 119.296,353.946 119.041,353.946 118.907 C 353.946 118.772,353.711 118.412,353.424 118.107 C 353.137 117.801,352.693 116.804,352.438 115.891 C 352.183 114.977,351.806 113.925,351.602 113.553 C 351.397 113.180,350.965 112.394,350.642 111.806 C 350.318 111.218,349.948 110.737,349.818 110.737 C 349.688 110.737,349.508 110.505,349.418 110.220 C 349.328 109.935,349.087 109.702,348.883 109.702 C 348.679 109.702,348.512 109.569,348.512 109.405 C 348.512 109.241,347.988 108.612,347.348 108.007 C 346.272 106.991,346.184 106.810,346.184 105.623 C 346.184 104.398,344.255 101.940,343.294 101.940 C 343.176 101.940,343.079 101.755,343.079 101.528 C 343.079 101.301,342.859 101.058,342.591 100.988 C 342.255 100.900,342.051 100.535,341.935 99.813 C 341.843 99.237,341.539 98.475,341.259 98.119 C 340.979 97.763,340.750 97.135,340.750 96.723 C 340.750 96.279,340.584 95.910,340.342 95.817 C 340.118 95.731,339.830 95.385,339.702 95.049 C 339.574 94.712,339.292 94.437,339.075 94.437 C 338.818 94.437,338.679 94.189,338.677 93.726 C 338.672 92.877,338.458 92.520,337.811 92.281 C 337.404 92.130,337.355 91.929,337.496 90.986 C 337.760 89.226,337.605 89.068,335.406 88.862 C 333.439 88.678,332.555 88.200,332.129 87.089 C 332.041 86.862,331.791 86.675,331.573 86.675 C 331.356 86.675,331.177 86.552,331.177 86.402 C 331.177 86.066,329.611 84.607,329.244 84.601 C 328.968 84.596,327.814 83.481,327.814 83.220 C 327.814 83.028,326.507 80.975,326.003 80.373 C 325.789 80.119,325.423 79.699,325.188 79.439 C 324.954 79.179,324.679 78.591,324.578 78.132 C 324.468 77.631,324.200 77.247,323.905 77.170 C 323.636 77.100,323.415 76.882,323.415 76.686 C 323.415 76.490,323.182 76.185,322.898 76.007 C 322.536 75.781,322.380 75.404,322.380 74.751 C 322.380 74.147,322.198 73.654,321.863 73.351 C 321.578 73.093,321.345 72.559,321.345 72.163 C 321.345 71.004,320.889 70.127,320.040 69.653 C 319.549 69.379,319.190 68.933,319.096 68.479 C 319.012 68.076,318.727 67.612,318.463 67.446 C 318.198 67.281,317.982 67.015,317.982 66.855 C 317.982 66.465,316.130 65.201,315.558 65.201 C 314.782 65.201,314.167 65.673,313.883 66.489 C 313.548 67.450,311.514 67.711,311.514 66.793 C 311.514 66.530,311.281 66.105,310.996 65.847 C 310.712 65.590,310.479 65.188,310.479 64.953 C 310.479 64.151,309.894 63.907,307.969 63.907 C 306.537 63.907,306.080 63.821,306.080 63.550 C 306.080 63.354,305.888 63.034,305.652 62.839 C 305.417 62.644,305.066 62.105,304.872 61.643 C 304.679 61.180,304.361 60.802,304.166 60.802 C 303.971 60.802,303.751 60.569,303.677 60.285 C 303.588 59.945,303.324 59.767,302.908 59.767 C 302.560 59.767,301.970 59.505,301.597 59.185 C 300.122 57.918,299.379 57.439,298.890 57.439 C 298.609 57.439,298.322 57.223,298.254 56.961 C 298.124 56.463,296.970 56.153,295.230 56.148 C 294.432 56.145,292.620 55.486,291.591 54.824 C 291.378 54.686,290.887 54.437,290.500 54.271 C 289.461 53.823,289.337 52.181,290.323 51.923 C 290.871 51.780,291.097 47.607,290.556 47.607 C 290.414 47.607,290.298 47.366,290.298 47.072 C 290.298 46.778,290.175 46.309,290.026 46.030 C 289.813 45.632,289.868 45.377,290.285 44.848 C 290.765 44.237,290.815 43.813,290.815 40.324 L 290.815 36.474 289.974 35.961 C 289.512 35.679,288.886 35.448,288.583 35.447 C 288.280 35.447,287.887 35.272,287.710 35.058 C 287.533 34.845,287.004 34.670,286.534 34.670 C 285.795 34.670,285.642 34.554,285.394 33.803 C 284.991 32.580,284.252 32.342,280.869 32.342 L 277.933 32.342 277.065 31.527 C 276.587 31.079,275.818 30.554,275.356 30.359 C 274.893 30.165,274.515 29.885,274.515 29.737 C 274.515 29.589,274.175 29.350,273.759 29.205 C 273.344 29.060,272.944 28.786,272.871 28.596 C 272.798 28.406,272.391 28.174,271.967 28.081 C 271.542 27.988,271.130 27.744,271.052 27.539 C 270.953 27.282,270.496 27.167,269.572 27.167 C 268.479 27.167,268.126 27.049,267.636 26.520 C 267.092 25.934,266.842 25.873,264.963 25.873 C 263.155 25.873,262.855 25.807,262.613 25.356 C 262.461 25.071,262.172 24.838,261.972 24.838 C 261.772 24.838,261.446 24.608,261.249 24.327 C 260.973 23.933,260.464 23.776,259.035 23.643 C 257.243 23.476,257.180 23.447,257.180 22.783 C 257.180 21.570,255.868 21.051,254.566 21.748 C 253.931 22.088,253.182 21.864,252.499 21.131 C 251.695 20.267,244.702 20.100,244.256 20.934 C 243.920 21.562,242.085 21.711,241.733 21.138 C 241.470 20.709,239.389 19.922,238.518 19.922 C 237.933 19.922,236.965 19.573,235.697 18.904 C 234.815 18.438,233.548 18.339,232.303 18.638 C 230.822 18.993,229.223 18.653,228.386 17.804 C 227.991 17.404,227.475 17.335,224.863 17.335 C 222.274 17.335,221.708 17.261,221.186 16.854 C 219.641 15.649,217.045 15.991,215.786 17.565 C 215.046 18.490,214.748 18.579,214.748 17.876 C 214.748 17.326,213.368 16.041,212.778 16.041 C 212.571 16.041,212.110 15.851,211.755 15.618 C 210.595 14.858,207.800 14.875,206.734 15.648 M293.546 19.204 C 292.425 20.805,293.167 22.639,294.936 22.639 C 296.501 22.639,297.063 22.174,297.101 20.849 C 297.154 18.984,294.546 17.777,293.546 19.204 M302.199 34.153 C 302.047 34.437,301.756 34.670,301.552 34.670 C 300.865 34.670,300.600 35.608,301.009 36.588 C 302.046 39.071,306.410 38.047,306.037 35.408 C 305.982 35.018,305.751 34.771,305.395 34.720 C 305.089 34.677,304.780 34.415,304.708 34.138 C 304.517 33.408,302.592 33.419,302.199 34.153 M106.921 37.007 C 106.426 37.206,106.339 37.434,106.339 38.543 L 106.339 39.845 107.734 39.845 C 109.271 39.845,109.444 39.674,109.444 38.151 C 109.444 36.894,108.390 36.416,106.921 37.007 M100.135 40.123 C 98.914 40.630,98.577 41.141,98.577 42.489 C 98.577 44.971,99.806 45.977,101.352 44.761 C 101.714 44.476,102.272 44.243,102.593 44.243 C 103.783 44.243,104.432 41.244,103.421 40.412 C 102.932 40.010,100.850 39.827,100.135 40.123 M303.034 48.637 C 300.482 49.242,299.763 53.344,302.105 53.931 C 302.933 54.139,303.752 53.889,303.752 53.428 C 303.752 53.234,303.984 53.001,304.269 52.911 C 304.625 52.798,304.836 52.432,304.948 51.734 C 305.037 51.177,305.270 50.588,305.466 50.426 C 305.940 50.033,305.903 49.665,305.319 48.965 C 304.811 48.357,304.440 48.303,303.034 48.637 M23.717 79.345 C 23.415 79.647,23.532 81.384,23.887 81.870 C 24.556 82.785,26.380 81.919,26.719 80.526 C 26.971 79.490,24.532 78.530,23.717 79.345 M331.191 80.819 C 331.063 81.155,330.775 81.501,330.550 81.587 C 329.561 81.966,330.018 84.478,331.159 84.926 C 332.200 85.335,333.247 84.818,333.247 83.895 C 333.247 83.736,333.480 83.531,333.765 83.441 C 334.166 83.314,334.282 83.050,334.282 82.259 C 334.282 80.408,331.789 79.246,331.191 80.819 M208.782 82.036 C 221.629 83.223,232.236 85.417,240.621 88.623 C 246.308 90.798,247.377 91.232,249.622 92.280 C 250.944 92.897,252.095 93.402,252.181 93.402 C 252.941 93.402,263.736 99.728,267.917 102.624 C 286.462 115.466,302.438 135.464,309.745 154.981 C 310.305 156.475,310.917 158.047,311.105 158.473 C 311.721 159.867,312.256 161.505,313.687 166.365 C 325.164 205.355,315.071 248.189,287.325 278.248 C 281.062 285.033,271.338 293.286,265.201 297.025 C 264.418 297.502,263.545 298.090,263.260 298.331 C 262.499 298.976,255.237 302.869,251.358 304.710 C 221.795 318.750,188.367 319.825,157.956 307.716 C 108.561 288.047,78.936 238.414,84.861 185.252 C 85.272 181.573,86.390 175.079,87.068 172.445 C 88.807 165.683,89.290 163.977,90.036 161.966 C 90.485 160.757,91.254 158.628,91.746 157.235 C 99.183 136.175,115.941 115.058,135.828 101.686 C 138.542 99.861,144.437 96.310,145.290 95.985 C 145.626 95.858,146.342 95.481,146.883 95.148 C 148.463 94.174,155.640 90.915,158.732 89.767 C 164.426 87.653,165.787 87.200,169.599 86.153 C 177.805 83.898,181.543 83.251,193.273 82.053 C 196.479 81.726,205.320 81.716,208.782 82.036 M263.648 111.375 C 263.008 111.712,260.967 113.482,259.114 115.308 C 247.518 126.733,237.202 128.248,215.006 121.784 C 211.735 120.831,208.106 119.797,206.210 119.278 C 205.285 119.024,203.189 118.447,201.552 117.994 C 193.601 115.795,184.290 114.836,175.980 115.360 C 163.056 116.175,159.866 118.879,156.408 131.953 C 153.909 141.400,152.144 146.788,148.907 154.851 C 143.326 168.752,142.885 170.558,144.512 172.872 C 147.197 176.693,148.998 176.217,155.369 170.001 C 168.230 157.452,179.409 152.614,191.311 154.447 C 192.177 154.580,194.224 154.821,195.860 154.983 C 199.280 155.320,203.172 156.077,203.277 156.425 C 203.316 156.556,202.174 157.303,200.739 158.085 C 185.314 166.497,174.425 179.322,176.430 186.716 C 176.773 187.983,177.871 189.036,179.857 190.004 C 182.936 191.506,184.536 193.296,185.288 196.083 C 185.740 197.758,185.933 257.904,185.513 266.193 C 184.926 277.775,183.280 280.560,174.031 285.630 C 169.317 288.214,168.100 291.939,170.966 295.012 C 172.538 296.699,171.355 296.636,201.811 296.636 L 229.366 296.636 230.907 295.860 C 232.946 294.833,233.454 294.092,233.590 291.948 C 233.793 288.766,233.164 287.821,229.407 285.659 C 221.052 280.852,218.875 277.684,218.085 269.182 C 217.532 263.229,217.452 183.633,217.992 176.973 C 218.637 169.025,219.903 164.639,222.380 161.769 C 224.283 159.564,224.634 159.406,237.516 154.923 C 253.580 149.334,265.017 138.303,270.185 123.415 C 273.150 114.872,269.561 108.260,263.648 111.375 M375.039 149.556 C 373.945 149.944,373.717 150.143,373.524 150.880 C 373.223 152.026,373.477 154.807,373.896 154.947 C 374.074 155.006,374.475 155.329,374.785 155.665 C 375.679 156.628,378.784 155.600,378.784 154.341 C 378.784 154.192,379.017 153.925,379.301 153.747 C 380.715 152.864,379.728 150.006,377.890 149.662 C 377.382 149.566,376.903 149.385,376.825 149.259 C 376.654 148.983,376.653 148.983,375.039 149.556 M21.887 158.485 C 19.669 159.999,19.408 161.886,21.250 163.091 C 22.241 163.740,23.286 163.832,23.286 163.271 C 23.286 163.153,23.577 162.984,23.933 162.895 C 24.556 162.739,24.580 162.656,24.580 160.651 C 24.580 157.348,24.108 156.969,21.887 158.485 M77.878 166.494 C 77.878 166.850,77.785 167.141,77.671 167.141 C 77.217 167.141,76.843 166.475,76.843 165.666 L 76.843 164.812 77.361 165.330 C 77.646 165.614,77.878 166.138,77.878 166.494 M381.851 176.106 C 381.023 176.336,380.825 178.612,381.597 179.025 C 382.162 179.327,383.678 178.974,384.001 178.465 C 384.810 177.191,383.423 175.670,381.851 176.106 M74.515 196.267 C 74.515 197.517,73.650 197.442,73.528 196.182 C 73.460 195.481,73.535 195.343,73.981 195.343 C 74.421 195.343,74.515 195.506,74.515 196.267 M382.147 198.069 C 382.147 198.304,381.920 198.556,381.642 198.628 C 381.271 198.725,381.089 199.075,380.959 199.941 C 380.724 201.510,381.024 201.923,382.466 202.018 C 384.167 202.131,384.518 201.683,384.423 199.518 L 384.347 197.801 383.247 197.721 C 382.365 197.657,382.147 197.726,382.147 198.069 M16.214 252.178 C 16.119 252.273,16.041 252.768,16.041 253.280 C 16.041 253.929,15.885 254.307,15.524 254.532 C 14.426 255.218,15.816 257.180,17.400 257.180 C 18.232 257.180,19.405 258.171,19.405 258.874 C 19.405 259.050,19.680 259.263,20.017 259.347 C 20.591 259.491,20.612 259.562,20.360 260.507 C 19.869 262.348,21.451 264.353,22.818 263.621 C 23.810 263.091,23.729 259.943,22.718 259.679 L 22.162 259.534 22.711 259.068 C 23.228 258.630,23.632 257.271,23.979 254.803 C 24.217 253.110,22.479 251.355,21.683 252.486 C 21.097 253.319,20.309 253.397,19.971 252.656 C 19.678 252.012,16.752 251.639,16.214 252.178 M0.010 299.138 L 0.021 300.517 0.415 299.791 C 0.857 298.975,0.812 298.025,0.323 297.864 C 0.091 297.788,0.003 298.146,0.010 299.138 M0.175 305.474 C -0.719 306.367,0.611 311.003,1.876 311.405 C 3.527 311.929,4.762 309.525,3.493 308.256 C 3.137 307.900,2.846 307.403,2.846 307.152 C 2.846 306.408,0.632 305.017,0.175 305.474 M202.846 320.569 C 202.846 320.893,202.571 320.893,202.070 320.569 C 201.756 320.366,201.793 320.318,202.264 320.314 C 202.584 320.312,202.846 320.427,202.846 320.569 M203.622 322.122 C 203.622 322.576,202.935 323.332,202.718 323.115 C 202.655 323.052,202.673 322.568,202.759 322.040 C 202.922 321.036,203.622 321.103,203.622 322.122 M202.244 325.939 C 202.004 326.179,201.667 326.261,201.379 326.151 C 200.957 325.989,200.983 325.923,201.617 325.538 C 202.009 325.301,202.342 324.988,202.359 324.843 C 202.375 324.698,202.445 324.797,202.513 325.063 C 202.581 325.329,202.460 325.723,202.244 325.939 M90.334 335.806 C 89.614 336.262,89.646 338.311,90.384 339.049 C 91.843 340.509,93.144 339.663,93.144 337.254 C 93.144 335.770,91.626 334.988,90.334 335.806 M227.146 345.885 C 227.352 346.271,227.256 346.470,226.648 346.920 C 225.406 347.838,225.048 347.545,225.608 346.071 C 225.907 345.286,226.769 345.182,227.146 345.885 M97.865 352.047 C 97.664 352.129,97.542 352.695,97.542 353.552 C 97.542 354.952,97.786 355.366,99.193 356.361 C 99.605 356.653,99.676 357.025,99.653 358.792 C 99.631 360.505,99.718 360.996,100.136 361.528 C 100.814 362.389,100.796 363.855,100.098 364.799 C 98.925 366.386,99.903 372.512,101.338 372.563 C 101.504 372.569,101.722 372.947,101.823 373.402 C 102.313 375.637,105.052 376.489,106.640 374.900 L 107.419 374.122 108.611 374.526 C 109.838 374.943,111.580 374.846,112.225 374.325 C 113.308 373.451,111.423 371.281,109.582 371.281 C 108.520 371.281,108.409 371.223,108.409 370.666 C 108.409 369.531,108.096 368.474,107.604 367.946 C 107.329 367.651,107.115 367.047,107.115 366.566 C 107.115 366.095,106.882 365.276,106.598 364.745 C 106.313 364.214,106.079 363.633,106.078 363.455 C 106.076 363.277,105.612 362.723,105.045 362.225 C 104.143 361.432,104.015 361.180,104.013 360.196 C 104.011 359.467,103.828 358.841,103.493 358.415 C 103.093 357.906,102.975 357.365,102.975 356.029 C 102.975 353.996,102.360 353.008,101.264 353.283 C 100.741 353.414,100.647 353.343,100.647 352.814 C 100.647 351.978,99.096 351.551,97.865 352.047 M267.583 363.221 C 266.703 363.780,266.846 366.847,267.755 366.913 C 269.880 367.068,270.858 364.922,269.228 363.679 C 268.268 362.947,268.093 362.898,267.583 363.221 " stroke="none" fill="#fbfbfb" fill-rule="evenodd"></path><path id="path2" d="M198.268 81.953 C 199.948 81.998,202.626 81.998,204.219 81.952 C 205.812 81.907,204.437 81.870,201.164 81.870 C 197.891 81.871,196.588 81.908,198.268 81.953 M124.305 110.543 L 123.545 111.384 124.386 110.624 C 124.848 110.206,125.226 109.828,125.226 109.783 C 125.226 109.584,125.013 109.760,124.305 110.543 M258.473 115.783 C 257.413 116.850,256.604 117.723,256.675 117.723 C 256.746 117.723,257.672 116.850,258.732 115.783 C 259.792 114.715,260.602 113.842,260.530 113.842 C 260.459 113.842,259.534 114.715,258.473 115.783 M175.360 115.323 C 175.825 115.381,176.524 115.380,176.913 115.321 C 177.302 115.262,176.921 115.215,176.067 115.216 C 175.213 115.217,174.895 115.266,175.360 115.323 M184.286 115.321 C 184.679 115.381,185.261 115.379,185.579 115.318 C 185.897 115.257,185.576 115.208,184.864 115.210 C 184.153 115.212,183.892 115.262,184.286 115.321 M284.476 116.688 C 285.177 117.400,285.808 117.982,285.880 117.982 C 285.951 117.982,285.436 117.400,284.735 116.688 C 284.034 115.977,283.402 115.395,283.331 115.395 C 283.260 115.395,283.775 115.977,284.476 116.688 M271.493 117.206 C 271.493 118.131,271.540 118.509,271.597 118.047 C 271.655 117.584,271.655 116.827,271.597 116.365 C 271.540 115.902,271.493 116.281,271.493 117.206 M162.315 119.176 L 161.061 120.370 162.225 119.398 C 163.787 118.095,163.906 117.982,163.725 117.982 C 163.639 117.982,163.005 118.519,162.315 119.176 M287.451 119.874 C 287.451 119.919,287.830 120.297,288.292 120.715 L 289.133 121.475 288.373 120.634 C 287.665 119.850,287.451 119.674,287.451 119.874 M112.535 122.316 L 111.643 123.286 112.613 122.394 C 113.147 121.904,113.583 121.467,113.583 121.424 C 113.583 121.226,113.364 121.413,112.535 122.316 M270.145 123.444 C 269.986 123.901,269.901 124.321,269.956 124.376 C 270.011 124.431,270.187 124.102,270.346 123.645 C 270.506 123.188,270.591 122.769,270.536 122.713 C 270.480 122.658,270.305 122.987,270.145 123.444 M235.123 125.672 C 235.585 125.730,236.342 125.730,236.805 125.672 C 237.267 125.615,236.889 125.568,235.964 125.568 C 235.039 125.568,234.660 125.615,235.123 125.672 M257.690 143.014 L 256.016 144.761 257.762 143.086 C 258.723 142.166,259.508 141.380,259.508 141.340 C 259.508 141.150,259.245 141.392,257.690 143.014 M96.636 145.925 C 96.276 146.636,96.039 147.219,96.110 147.219 C 96.181 147.219,96.535 146.636,96.895 145.925 C 97.256 145.213,97.493 144.631,97.421 144.631 C 97.350 144.631,96.997 145.213,96.636 145.925 M185.705 154.396 C 186.594 154.446,188.050 154.446,188.939 154.396 C 189.829 154.345,189.101 154.304,187.322 154.304 C 185.543 154.304,184.816 154.345,185.705 154.396 M222.886 161.255 L 221.863 162.354 222.962 161.332 C 223.567 160.769,224.062 160.274,224.062 160.232 C 224.062 160.036,223.837 160.232,222.886 161.255 M155.106 170.310 L 151.746 173.739 155.175 170.379 C 158.359 167.258,158.720 166.882,158.534 166.882 C 158.497 166.882,156.954 168.425,155.106 170.310 M184.340 170.052 L 182.536 171.928 184.411 170.123 C 186.154 168.448,186.405 168.176,186.216 168.176 C 186.176 168.176,185.332 169.020,184.340 170.052 M314.662 170.246 C 314.676 170.918,315.083 172.022,315.092 171.410 C 315.096 171.125,314.999 170.660,314.877 170.375 C 314.741 170.058,314.658 170.008,314.662 170.246 M147.674 175.345 C 147.996 175.407,148.462 175.404,148.709 175.339 C 148.957 175.275,148.693 175.224,148.124 175.227 C 147.555 175.230,147.353 175.283,147.674 175.345 M217.720 220.957 C 217.720 243.370,217.751 252.539,217.788 241.332 C 217.825 230.126,217.825 211.788,217.788 200.582 C 217.751 189.376,217.720 198.545,217.720 220.957 M177.232 188.456 C 177.587 188.855,178.228 189.348,178.655 189.550 C 179.096 189.758,179.218 189.776,178.938 189.590 C 178.667 189.410,178.027 188.918,177.515 188.496 L 176.585 187.729 177.232 188.456 M317.794 188.875 C 317.794 189.515,317.844 189.777,317.906 189.457 C 317.967 189.136,317.967 188.613,317.906 188.292 C 317.844 187.972,317.794 188.234,317.794 188.875 M84.421 189.780 C 84.423 190.492,84.473 190.752,84.532 190.359 C 84.592 189.965,84.590 189.383,84.529 189.065 C 84.467 188.747,84.419 189.069,84.421 189.780 M318.072 193.014 C 318.072 194.224,318.117 194.719,318.171 194.114 C 318.226 193.509,318.226 192.519,318.171 191.915 C 318.117 191.310,318.072 191.805,318.072 193.014 M84.177 194.437 C 84.178 195.576,84.223 196.009,84.278 195.401 C 84.332 194.792,84.332 193.861,84.276 193.331 C 84.220 192.801,84.176 193.299,84.177 194.437 M318.323 198.965 C 318.323 199.890,318.370 200.268,318.428 199.806 C 318.485 199.343,318.485 198.587,318.428 198.124 C 318.370 197.662,318.323 198.040,318.323 198.965 M185.581 199.741 C 185.581 200.382,185.632 200.644,185.694 200.323 C 185.755 200.003,185.755 199.479,185.694 199.159 C 185.632 198.839,185.581 199.101,185.581 199.741 M84.177 202.975 C 84.178 204.114,84.223 204.547,84.278 203.939 C 84.332 203.330,84.332 202.399,84.276 201.869 C 84.220 201.339,84.176 201.837,84.177 202.975 M318.071 204.787 C 318.072 205.925,318.117 206.359,318.172 205.750 C 318.226 205.141,318.226 204.210,318.170 203.680 C 318.114 203.150,318.070 203.648,318.071 204.787 M84.407 207.503 C 84.407 208.001,84.460 208.205,84.525 207.956 C 84.590 207.707,84.590 207.299,84.525 207.050 C 84.460 206.801,84.407 207.005,84.407 207.503 M317.788 208.926 C 317.791 209.495,317.844 209.698,317.906 209.376 C 317.968 209.054,317.966 208.588,317.901 208.341 C 317.836 208.094,317.786 208.357,317.788 208.926 M185.601 261.837 C 185.601 263.047,185.646 263.541,185.700 262.937 C 185.755 262.332,185.755 261.342,185.700 260.737 C 185.646 260.133,185.601 260.627,185.601 261.837 M217.918 265.847 C 217.921 266.417,217.974 266.619,218.036 266.297 C 218.097 265.975,218.095 265.510,218.030 265.262 C 217.966 265.015,217.915 265.278,217.918 265.847 M117.853 281.242 C 119.413 282.807,120.748 284.088,120.819 284.088 C 120.890 284.088,119.672 282.807,118.111 281.242 C 116.551 279.677,115.216 278.396,115.145 278.396 C 115.074 278.396,116.292 279.677,117.853 281.242 M181.230 280.530 L 180.207 281.630 181.307 280.607 C 181.911 280.045,182.406 279.550,182.406 279.508 C 182.406 279.312,182.181 279.508,181.230 280.530 M222.639 280.983 C 223.195 281.552,223.708 282.018,223.779 282.018 C 223.850 282.018,223.454 281.552,222.898 280.983 C 222.342 280.414,221.829 279.948,221.758 279.948 C 221.687 279.948,222.083 280.414,222.639 280.983 M281.745 283.765 L 280.854 284.735 281.824 283.843 C 282.727 283.013,282.913 282.794,282.716 282.794 C 282.672 282.794,282.236 283.231,281.745 283.765 M278.250 286.999 L 277.490 287.840 278.331 287.080 C 279.115 286.371,279.291 286.158,279.091 286.158 C 279.047 286.158,278.668 286.536,278.250 286.999 M233.715 291.462 C 233.717 292.316,233.765 292.634,233.823 292.169 C 233.880 291.704,233.879 291.005,233.820 290.616 C 233.761 290.228,233.714 290.608,233.715 291.462 M185.449 315.060 C 185.771 315.122,186.237 315.120,186.484 315.055 C 186.732 314.990,186.468 314.939,185.899 314.942 C 185.330 314.945,185.127 314.998,185.449 315.060 M216.494 315.060 C 216.814 315.121,217.338 315.121,217.658 315.060 C 217.979 314.998,217.717 314.948,217.076 314.948 C 216.436 314.948,216.174 314.998,216.494 315.060 M187.646 315.314 C 187.895 315.379,188.302 315.379,188.551 315.314 C 188.800 315.249,188.596 315.196,188.098 315.196 C 187.600 315.196,187.397 315.249,187.646 315.314 M193.208 315.836 C 193.528 315.898,194.052 315.898,194.373 315.836 C 194.693 315.774,194.431 315.724,193.790 315.724 C 193.150 315.724,192.888 315.774,193.208 315.836 M208.215 315.836 C 208.535 315.898,209.059 315.898,209.379 315.836 C 209.699 315.774,209.437 315.724,208.797 315.724 C 208.157 315.724,207.895 315.774,208.215 315.836 M198.646 316.100 C 199.111 316.157,199.810 316.156,200.199 316.097 C 200.587 316.038,200.207 315.991,199.353 315.992 C 198.499 315.994,198.181 316.042,198.646 316.100 M202.269 316.100 C 202.734 316.157,203.432 316.156,203.821 316.097 C 204.210 316.038,203.829 315.991,202.975 315.992 C 202.122 315.994,201.804 316.042,202.269 316.100 " stroke="none" fill="#9f9f9f" fill-rule="evenodd"></path><path id="path3" d="M259.115 114.942 L 256.533 117.594 259.185 115.011 C 260.644 113.591,261.837 112.398,261.837 112.359 C 261.837 112.172,261.514 112.479,259.115 114.942 M283.829 116.300 C 285.461 117.937,286.854 119.276,286.926 119.276 C 286.997 119.276,285.720 117.937,284.088 116.300 C 282.456 114.664,281.063 113.325,280.992 113.325 C 280.920 113.325,282.197 114.664,283.829 116.300 M176.139 115.067 C 176.747 115.122,177.679 115.121,178.209 115.065 C 178.739 115.010,178.241 114.965,177.102 114.966 C 175.964 114.967,175.530 115.012,176.139 115.067 M183.118 115.064 C 183.580 115.122,184.337 115.122,184.799 115.064 C 185.262 115.007,184.884 114.960,183.959 114.960 C 183.034 114.960,182.655 115.007,183.118 115.064 M118.241 116.300 C 117.612 116.940,117.156 117.464,117.227 117.464 C 117.298 117.464,117.871 116.940,118.499 116.300 C 119.128 115.660,119.584 115.136,119.513 115.136 C 119.442 115.136,118.869 115.660,118.241 116.300 M173.157 115.314 C 173.406 115.379,173.813 115.379,174.062 115.314 C 174.311 115.249,174.107 115.196,173.609 115.196 C 173.111 115.196,172.908 115.249,173.157 115.314 M187.132 115.321 C 187.525 115.381,188.107 115.379,188.425 115.318 C 188.744 115.257,188.422 115.208,187.710 115.210 C 186.999 115.212,186.738 115.262,187.132 115.321 M114.473 120.375 L 113.713 121.216 114.554 120.456 C 115.016 120.038,115.395 119.660,115.395 119.615 C 115.395 119.415,115.181 119.591,114.473 120.375 M233.186 125.412 C 233.579 125.472,234.161 125.470,234.480 125.409 C 234.798 125.347,234.476 125.298,233.765 125.300 C 233.053 125.302,232.793 125.353,233.186 125.412 M237.197 125.414 C 237.662 125.471,238.361 125.470,238.750 125.411 C 239.139 125.352,238.758 125.305,237.904 125.307 C 237.050 125.308,236.732 125.356,237.197 125.414 M257.697 143.208 C 257.069 143.849,256.613 144.373,256.684 144.373 C 256.755 144.373,257.328 143.849,257.956 143.208 C 258.584 142.568,259.040 142.044,258.969 142.044 C 258.898 142.044,258.326 142.568,257.697 143.208 M171.734 157.716 C 170.766 158.241,170.825 158.459,171.798 157.956 C 172.225 157.735,172.574 157.499,172.574 157.432 C 172.574 157.265,172.547 157.275,171.734 157.716 M155.494 170.181 L 152.264 173.480 155.563 170.250 C 157.377 168.473,158.862 166.989,158.862 166.951 C 158.862 166.765,158.495 167.117,155.494 170.181 M184.076 170.052 L 183.053 171.151 184.153 170.129 C 185.175 169.177,185.371 168.952,185.175 168.952 C 185.133 168.952,184.638 169.447,184.076 170.052 M218.430 173.609 C 218.430 174.107,218.483 174.311,218.548 174.062 C 218.613 173.813,218.613 173.406,218.548 173.157 C 218.483 172.908,218.430 173.111,218.430 173.609 M217.918 179.948 C 217.921 180.517,217.974 180.720,218.036 180.398 C 218.097 180.076,218.095 179.610,218.030 179.363 C 217.966 179.116,217.915 179.379,217.918 179.948 M317.783 191.203 C 317.783 191.701,317.836 191.905,317.902 191.656 C 317.967 191.407,317.967 190.999,317.902 190.750 C 317.836 190.501,317.783 190.705,317.783 191.203 M318.080 198.965 C 318.080 200.602,318.122 201.271,318.173 200.453 C 318.224 199.635,318.224 198.296,318.173 197.477 C 318.122 196.659,318.080 197.329,318.080 198.965 M84.153 198.318 C 84.156 198.887,84.209 199.090,84.271 198.768 C 84.333 198.446,84.330 197.980,84.266 197.733 C 84.201 197.486,84.150 197.749,84.153 198.318 M185.636 228.719 C 185.636 243.732,185.667 249.874,185.705 242.367 C 185.743 234.861,185.743 222.578,185.705 215.071 C 185.667 207.565,185.636 213.706,185.636 228.719 M317.783 206.727 C 317.783 207.225,317.836 207.429,317.902 207.180 C 317.967 206.931,317.967 206.523,317.902 206.274 C 317.836 206.025,317.783 206.229,317.783 206.727 M217.947 261.708 C 217.948 263.131,217.991 263.680,218.044 262.928 C 218.096 262.176,218.095 261.012,218.042 260.341 C 217.989 259.669,217.946 260.285,217.947 261.708 M185.312 266.494 C 185.312 266.992,185.366 267.196,185.431 266.947 C 185.496 266.698,185.496 266.290,185.431 266.041 C 185.366 265.792,185.312 265.996,185.312 266.494 M185.054 270.116 C 185.054 270.614,185.107 270.818,185.172 270.569 C 185.237 270.320,185.237 269.913,185.172 269.664 C 185.107 269.415,185.054 269.618,185.054 270.116 M218.430 270.634 C 218.430 271.132,218.483 271.336,218.548 271.087 C 218.613 270.838,218.613 270.430,218.548 270.181 C 218.483 269.932,218.430 270.136,218.430 270.634 M289.634 275.356 L 288.875 276.197 289.715 275.437 C 290.499 274.728,290.675 274.515,290.475 274.515 C 290.431 274.515,290.052 274.893,289.634 275.356 M115.524 278.655 C 116.225 279.366,116.856 279.948,116.928 279.948 C 116.999 279.948,116.483 279.366,115.783 278.655 C 115.082 277.943,114.450 277.361,114.379 277.361 C 114.308 277.361,114.823 277.943,115.524 278.655 M120.310 283.441 C 121.227 284.366,122.036 285.123,122.107 285.123 C 122.178 285.123,121.486 284.366,120.569 283.441 C 119.652 282.516,118.844 281.759,118.773 281.759 C 118.702 281.759,119.394 282.516,120.310 283.441 M233.954 291.591 C 233.954 292.089,234.007 292.293,234.072 292.044 C 234.137 291.795,234.137 291.387,234.072 291.138 C 234.007 290.889,233.954 291.093,233.954 291.591 M188.700 296.960 C 195.933 296.998,207.692 296.998,214.832 296.960 C 221.972 296.922,216.054 296.890,201.682 296.890 C 187.309 296.890,181.467 296.922,188.700 296.960 M213.001 315.314 C 213.250 315.379,213.658 315.379,213.907 315.314 C 214.156 315.249,213.952 315.196,213.454 315.196 C 212.956 315.196,212.752 315.249,213.001 315.314 M192.173 315.577 C 192.494 315.639,193.017 315.639,193.338 315.577 C 193.658 315.515,193.396 315.465,192.755 315.465 C 192.115 315.465,191.853 315.515,192.173 315.577 M209.124 315.580 C 209.517 315.640,210.099 315.638,210.418 315.577 C 210.736 315.515,210.414 315.467,209.702 315.469 C 208.991 315.471,208.731 315.521,209.124 315.580 M196.184 315.842 C 196.717 315.898,197.591 315.898,198.124 315.842 C 198.658 315.786,198.221 315.740,197.154 315.740 C 196.087 315.740,195.650 315.786,196.184 315.842 M204.204 315.842 C 204.738 315.898,205.611 315.898,206.145 315.842 C 206.679 315.786,206.242 315.740,205.175 315.740 C 204.107 315.740,203.671 315.786,204.204 315.842 " stroke="none" fill="#747474" fill-rule="evenodd"></path><path id="path4" d="M120.297 114.295 L 119.405 115.265 120.375 114.374 C 120.909 113.883,121.345 113.447,121.345 113.403 C 121.345 113.206,121.126 113.392,120.297 114.295 M179.498 115.060 C 179.820 115.122,180.286 115.120,180.533 115.055 C 180.781 114.990,180.517 114.939,179.948 114.942 C 179.379 114.945,179.177 114.998,179.498 115.060 M84.153 200.129 C 84.156 200.699,84.209 200.901,84.271 200.579 C 84.333 200.257,84.330 199.792,84.266 199.544 C 84.201 199.297,84.150 199.560,84.153 200.129 M185.600 257.827 C 185.601 258.965,185.646 259.399,185.701 258.790 C 185.755 258.182,185.755 257.250,185.699 256.720 C 185.643 256.190,185.599 256.688,185.600 257.827 M283.425 282.083 L 282.665 282.924 283.506 282.164 C 284.290 281.455,284.466 281.242,284.266 281.242 C 284.221 281.242,283.843 281.620,283.425 282.083 " stroke="none" fill="#7c7c7b" fill-rule="evenodd"></path></g></svg>